<svg width="60" height="60" viewBox="0 0 60 60" fill="none" xmlns="http://www.w3.org/2000/svg">
<path d="M23.7932 7.39655C10.6736 7.39655 6.39478e-05 17.0026 6.39478e-05 28.8103C6.39478e-05 32.9376 1.30551 36.9357 3.78158 40.3928C3.31286 45.5773 2.05658 49.4263 0.232443 51.2496C-0.0086602 51.4907 -0.068936 51.8595 0.0833398 52.1641C0.218167 52.4361 0.495754 52.6034 0.793167 52.6034C0.82965 52.6034 0.866133 52.6011 0.903409 52.5955C1.22462 52.5503 8.68613 51.4764 14.0832 48.3611C17.1478 49.5976 20.4122 50.2241 23.7932 50.2241C36.9127 50.2241 47.5863 40.6181 47.5863 28.8103C47.5863 17.0026 36.9127 7.39655 23.7932 7.39655Z" fill="#FF0043"/>
<path d="M12.6895 31.9828C10.9399 31.9828 9.51709 30.5599 9.51709 28.8104C9.51709 27.0608 10.9399 25.6379 12.6895 25.6379C14.4391 25.6379 15.8619 27.0608 15.8619 28.8104C15.8619 30.5599 14.4391 31.9828 12.6895 31.9828Z" fill="white"/>
<path d="M23.793 31.9828C22.0434 31.9828 20.6206 30.5599 20.6206 28.8104C20.6206 27.0608 22.0434 25.6379 23.793 25.6379C25.5426 25.6379 26.9654 27.0608 26.9654 28.8104C26.9654 30.5599 25.5426 31.9828 23.793 31.9828Z" fill="white"/>
<path d="M34.8965 31.9828C33.1469 31.9828 31.7241 30.5599 31.7241 28.8104C31.7241 27.0608 33.1469 25.6379 34.8965 25.6379C36.6461 25.6379 38.0689 27.0608 38.0689 28.8104C38.0689 30.5599 36.6461 31.9828 34.8965 31.9828Z" fill="white"/>
</svg>
