<svg width="60" height="60" viewBox="0 0 60 60" fill="none" xmlns="http://www.w3.org/2000/svg">
<path d="M36.5625 15.8438V52.5938C36.5625 53.3813 35.9438 54 35.1562 54H1.40625C0.618656 54 0 53.3813 0 52.5938V7.40625C0 6.61866 0.618656 6 1.40625 6H23.9062L26.7188 10.9219L29.5312 13.0312L36.5625 15.8438Z" fill="#FF0043"/>
<path d="M36 14.7187L24.75 6.28116C24.497 6.11241 24.2156 6 23.9062 6V14.4375C23.9062 15.2141 24.5359 15.8438 25.3125 15.8438H36.5625C36.5625 15.3938 36.3656 14.9719 36 14.7187Z" fill="#D30037"/>
<path d="M13.8484 33.3779C13.4364 32.7201 13.6369 31.8522 14.2961 31.4402L20.778 27.3917C21.4345 26.9852 22.3051 27.1816 22.7143 27.8408C23.1264 28.4986 22.9258 29.3664 22.2667 29.7785L15.7847 33.827C15.1333 34.2341 14.2629 34.0424 13.8484 33.3779Z" fill="white"/>
<path d="M20.778 40.8582L14.2961 36.8097C13.6369 36.3977 13.4364 35.5299 13.8484 34.872C14.2604 34.2115 15.1338 34.0179 15.7847 34.423L22.2667 38.4715C22.9258 38.8835 23.1264 39.7513 22.7143 40.4092C22.2996 41.0741 21.4291 41.2652 20.778 40.8582Z" fill="white"/>
<path d="M12.6562 38.3438C10.3299 38.3438 8.4375 36.4513 8.4375 34.125C8.4375 31.7987 10.3299 29.9062 12.6562 29.9062C14.9826 29.9062 16.875 31.7987 16.875 34.125C16.875 36.4513 14.9826 38.3438 12.6562 38.3438Z" fill="white"/>
<path d="M23.9062 31.3125C21.5799 31.3125 19.6875 29.4201 19.6875 27.0938C19.6875 24.7674 21.5799 22.875 23.9062 22.875C26.2326 22.875 28.125 24.7674 28.125 27.0938C28.125 29.4201 26.2326 31.3125 23.9062 31.3125Z" fill="white"/>
<path d="M23.9062 45.375C21.5799 45.375 19.6875 43.4826 19.6875 41.1562C19.6875 38.8299 21.5799 36.9375 23.9062 36.9375C26.2326 36.9375 28.125 38.8299 28.125 41.1562C28.125 43.4826 26.2326 45.375 23.9062 45.375Z" fill="white"/>
</svg>
